<svg version="1.1" id="Layer_1" xmlns="http://www.w3.org/2000/svg" xmlns:xlink="http://www.w3.org/1999/xlink" x="0px" y="0px"
	 width="100%" viewBox="0 0 3113 526" enable-background="new 0 0 3113 526" xml:space="preserve">
<path fill="#FFFFFF" opacity="1.000000" stroke="none" 
	d="
M2955.000000,527.000000 
	C1970.000000,527.000000 985.500000,527.000000 1.000000,527.000000 
	C1.000000,351.666656 1.000000,176.333328 1.000000,1.000000 
	C1038.666626,1.000000 2076.333252,1.000000 3114.000000,1.000000 
	C3114.000000,176.333328 3114.000000,351.666656 3114.000000,527.000000 
	C3061.166748,527.000000 3008.333252,527.000000 2955.000000,527.000000 
M1643.001099,133.608109 
	C1639.308228,118.186455 1630.413086,111.071831 1614.640991,111.003654 
	C1600.490234,110.942482 1586.900757,114.087952 1573.582275,118.520874 
	C1542.611572,128.829163 1514.226562,144.461960 1486.464966,161.295975 
	C1446.915894,185.277756 1409.256714,211.798203 1376.640015,244.881531 
	C1361.157349,260.585571 1346.932251,277.298889 1337.459961,297.502716 
	C1331.478516,310.260712 1328.116089,323.620209 1330.461548,337.709259 
	C1333.724854,357.311005 1346.574341,369.181946 1363.857666,377.033783 
	C1383.767334,386.078857 1404.920410,388.221710 1426.370850,386.946014 
	C1447.124878,385.711731 1467.808838,383.320129 1488.532471,381.541840 
	C1494.168213,381.058258 1499.836548,380.954132 1506.075806,380.647034 
	C1504.558960,383.529236 1503.493530,385.396393 1502.578857,387.334747 
	C1501.588379,389.434265 1500.625122,391.559814 1499.847900,393.744385 
	C1497.374146,400.697083 1498.465088,404.661530 1504.053345,409.563202 
	C1515.794189,419.861633 1533.435913,416.578369 1540.322876,402.586212 
	C1543.693726,395.737946 1545.893188,388.274689 1549.607300,381.640961 
	C1561.385742,360.602783 1573.500000,339.749115 1585.724854,318.965454 
	C1599.021729,296.359222 1611.081909,273.286987 1615.640747,247.062149 
	C1616.664062,241.175339 1613.679565,237.101410 1607.688965,236.627640 
	C1605.221558,236.432510 1602.591431,236.106262 1600.262207,236.712280 
	C1586.134033,240.388275 1572.072388,244.320663 1557.986206,248.158752 
	C1545.541138,251.549667 1533.570068,256.885834 1520.105957,255.761810 
	C1512.858154,255.156769 1505.473389,255.554153 1498.195557,256.099274 
	C1487.978882,256.864471 1480.898071,262.520996 1478.914795,270.728851 
	C1474.652832,288.366516 1486.221436,300.820465 1504.417358,297.652191 
	C1512.575073,296.231781 1520.608154,293.885956 1528.544556,291.458618 
	C1538.193604,288.507416 1547.680908,285.027222 1557.312622,281.750610 
	C1558.096069,292.287079 1554.082886,308.493408 1548.309814,318.830017 
	C1537.770386,337.700958 1520.893555,348.376038 1501.017090,354.815094 
	C1475.339233,363.133667 1448.773438,365.253906 1422.070190,363.331909 
	C1410.802856,362.520905 1399.320923,359.778992 1388.706055,355.840790 
	C1366.603027,347.640411 1359.043823,331.775970 1364.649414,308.960754 
	C1367.856567,295.906830 1374.533447,284.664703 1382.937500,274.397614 
	C1400.257568,253.238144 1421.965332,237.252396 1444.961670,222.987793 
	C1496.289551,191.149185 1551.717896,168.414780 1609.087646,150.160172 
	C1620.442261,146.547241 1632.044434,143.712311 1643.680908,140.477341 
	C1643.467163,138.357315 1643.269165,136.393097 1643.001099,133.608109 
M340.299347,131.877182 
	C306.654480,142.895630 272.930756,153.680618 239.391357,165.011322 
	C215.446472,173.100693 191.569138,181.650574 170.055206,195.214752 
	C162.277176,200.118668 154.764206,206.121033 148.783676,213.049393 
	C138.059982,225.472610 140.766830,241.369446 154.747101,249.892899 
	C161.439087,253.972839 169.089294,257.582611 176.724838,258.822052 
	C209.236542,264.099548 241.903809,268.419891 274.516937,273.070953 
	C287.083130,274.863098 299.596527,276.935883 310.293030,284.439026 
	C320.417572,291.540924 322.844238,303.095520 315.092529,312.713104 
	C310.093964,318.914825 303.568756,324.294922 296.800385,328.577667 
	C281.952423,337.972992 265.267700,343.387482 248.551193,348.510132 
	C223.181061,356.284576 197.471069,362.188995 170.784454,362.903046 
	C157.102615,363.269135 148.126343,356.798859 142.892075,344.442017 
	C137.518143,331.755524 136.468369,318.317352 136.259842,304.825531 
	C136.187820,300.165588 132.903091,299.881836 130.249405,298.971039 
	C128.706696,298.441589 126.010826,298.970520 124.820587,300.080933 
	C115.547752,308.731567 111.031410,319.710999 111.354744,332.247559 
	C112.196167,364.872406 138.499207,390.083130 171.246735,390.118774 
	C199.410751,390.149445 226.870178,385.200775 254.072418,378.428589 
	C277.555420,372.582275 300.429993,365.087067 321.389526,352.696869 
	C333.988770,345.248871 345.328857,336.293243 352.770325,323.316437 
	C365.071716,301.864746 360.178711,282.242859 339.301666,269.135803 
	C327.787079,261.906677 315.265137,256.887360 302.066345,253.965927 
	C272.365662,247.392044 242.536804,241.398727 212.820938,234.891357 
	C202.348526,232.598038 192.053345,229.495361 180.791183,226.528839 
	C182.755753,224.411530 183.701630,223.016296 184.980911,222.073380 
	C194.467865,215.080704 203.567001,207.416412 213.647903,201.405228 
	C234.733719,188.831879 258.393341,182.983276 281.963318,177.013550 
	C307.257599,170.607117 332.530182,164.086594 357.658173,157.064484 
	C369.695618,153.700562 381.144440,148.592392 390.566559,139.948090 
	C394.633301,136.217102 392.887482,129.261551 387.667084,127.506035 
	C382.007782,125.602921 376.436493,123.438004 370.776245,121.537910 
	C369.644684,121.158043 368.145325,121.087402 367.053101,121.501152 
	C358.354858,124.796120 349.713928,128.242340 340.299347,131.877182 
M707.926697,370.419647 
	C713.013611,366.126434 718.369812,362.111572 723.142517,357.493652 
	C748.841919,332.627960 765.734314,304.260315 759.098572,266.506744 
	C755.595276,246.574478 749.646484,227.662369 736.660889,211.755356 
	C720.531677,191.997513 696.461975,190.253265 677.370972,207.073425 
	C669.874573,213.678131 662.555176,220.493851 654.882935,226.886749 
	C639.276978,239.890488 622.973145,252.103149 607.898438,265.686646 
	C588.285706,283.359192 574.438477,304.658295 570.467163,331.586212 
	C566.137573,360.943359 579.190002,380.368988 608.462769,384.778351 
	C623.362915,387.022797 638.630432,386.824310 653.731140,387.742157 
	C673.764038,388.959717 691.356995,382.440186 707.926697,370.419647 
M1898.760742,218.262558 
	C1885.401978,229.282104 1872.227783,240.535553 1858.637695,251.262024 
	C1841.637207,264.680359 1826.137817,279.352509 1815.534668,298.544525 
	C1807.129517,313.758087 1803.098755,330.007355 1803.913818,347.427155 
	C1804.760254,365.516174 1817.477539,379.313019 1837.914551,384.035583 
	C1856.435913,388.315521 1875.302612,388.029877 1894.103760,387.584564 
	C1901.156616,387.417572 1908.365601,386.170227 1915.158813,384.216949 
	C1931.737305,379.450226 1944.986206,369.083557 1957.299805,357.426270 
	C1986.780518,329.517212 2001.878540,296.853149 1991.019409,255.566360 
	C1986.752319,239.342987 1981.025635,223.802628 1969.940674,210.843964 
	C1954.039673,192.255066 1930.413452,190.533600 1911.986328,206.508331 
	C1907.707764,210.217545 1903.551514,214.068146 1898.760742,218.262558 
M2551.926514,361.430176 
	C2553.400879,360.081909 2554.916748,358.776123 2556.343262,357.379028 
	C2581.742188,332.505157 2598.688965,304.372467 2592.131348,266.778503 
	C2588.652100,246.832092 2582.747070,227.918533 2569.825928,211.973724 
	C2553.582031,191.928787 2529.513916,190.175766 2510.197510,207.219391 
	C2502.706055,213.829330 2495.382080,220.641022 2487.696289,227.016541 
	C2473.212891,239.030869 2458.142578,250.362671 2444.006836,262.765289 
	C2422.703369,281.456696 2407.221924,303.750732 2403.277588,332.801056 
	C2399.527344,360.421265 2411.551270,378.483612 2438.750244,384.322754 
	C2446.358154,385.956024 2454.228027,386.952972 2462.000488,387.110504 
	C2476.453857,387.403442 2491.078857,388.116455 2505.349121,386.357117 
	C2523.392090,384.132568 2538.026611,373.806427 2551.926514,361.430176 
M2973.359863,206.127899 
	C2955.454590,191.598587 2936.635742,192.187042 2919.136230,207.176926 
	C2900.043945,223.530884 2880.667480,239.556396 2861.265869,255.544495 
	C2846.367920,267.821625 2833.039062,281.398773 2823.601318,298.437653 
	C2815.177246,313.645691 2811.128662,329.881317 2811.904297,347.301331 
	C2812.710938,365.413788 2825.386963,379.279510 2845.790771,384.013885 
	C2864.306641,388.310364 2883.175537,388.034424 2901.977783,387.586945 
	C2909.032715,387.419098 2916.274902,386.274017 2923.035889,384.251160 
	C2943.150635,378.232880 2958.415527,364.882172 2972.538086,350.003601 
	C2996.519043,324.738403 3007.907959,295.634369 3000.063232,260.573151 
	C2995.575439,240.516647 2988.894287,221.544479 2973.359863,206.127899 
M2131.266113,367.205139 
	C2121.905518,343.253357 2107.434082,322.467163 2090.714600,302.632812 
	C2092.571533,301.937317 2093.933594,301.437256 2095.288574,300.918427 
	C2117.008301,292.602417 2138.891113,284.683350 2160.400635,275.855042 
	C2182.442383,266.808380 2203.762695,256.237854 2221.828613,240.239136 
	C2230.964111,232.149109 2238.282959,222.841705 2240.645996,210.429428 
	C2243.281494,196.587585 2237.122070,187.965744 2223.102783,186.681747 
	C2210.463623,185.524139 2198.300537,188.378235 2186.432129,192.417755 
	C2168.194580,198.625061 2150.141602,205.406555 2131.766602,211.166794 
	C2122.833984,213.966995 2113.393555,216.249039 2103.968018,212.061935 
	C2103.319092,211.773727 2101.978516,212.238251 2101.364990,212.797455 
	C2092.898438,220.513351 2084.486328,228.288818 2076.101562,236.093491 
	C2073.523193,238.493484 2073.331787,241.413147 2074.125244,244.753479 
	C2076.775146,255.906143 2073.690186,265.420502 2065.557861,273.420258 
	C2059.857910,279.027161 2054.146240,284.627991 2048.620850,290.404633 
	C2044.947998,294.244446 2041.491455,298.305878 2038.136353,302.429596 
	C2036.148560,304.872620 2035.866943,307.335510 2038.608276,309.861023 
	C2039.550293,310.728943 2040.120483,313.376282 2039.502930,314.348480 
	C2033.182983,324.298706 2026.824219,334.244324 2019.952148,343.814911 
	C2016.873779,348.102020 2016.967163,352.169250 2021.616455,354.860107 
	C2028.916016,359.084808 2034.984863,358.575745 2040.255737,352.046539 
	C2044.173462,347.193481 2046.991821,341.437866 2050.169922,336.008209 
	C2052.097168,332.715607 2053.523682,329.110962 2055.618164,325.938965 
	C2060.641357,318.332245 2066.386475,316.637512 2073.807861,321.917267 
	C2079.231934,325.775970 2084.408203,330.760254 2087.949463,336.348816 
	C2100.911865,356.805725 2109.781494,378.880310 2111.267090,403.424866 
	C2111.525146,407.690887 2114.309570,409.912598 2118.455078,409.291443 
	C2129.892090,407.577850 2136.578613,400.321442 2135.819336,388.817017 
	C2135.355225,381.785309 2133.074707,374.873566 2131.266113,367.205139 
M2322.466309,223.020874 
	C2313.467041,224.651764 2304.379395,225.909698 2295.490967,228.009811 
	C2284.854980,230.522781 2274.257812,233.373489 2263.934326,236.922943 
	C2261.054932,237.912918 2257.978271,241.555496 2257.158203,244.570343 
	C2255.848145,249.386353 2256.350098,254.695328 2256.011230,261.242310 
	C2263.021973,260.667755 2269.392090,260.912537 2275.352783,259.467834 
	C2283.228760,257.558807 2290.725830,254.139450 2298.496826,251.726669 
	C2303.859619,250.061615 2309.347412,248.516647 2314.893555,247.794266 
	C2321.797852,246.894897 2323.092285,248.596420 2321.286621,255.147415 
	C2312.583740,286.721832 2299.186035,316.324707 2283.775391,345.131470 
	C2276.600830,358.543274 2265.950195,365.912018 2250.939453,368.119049 
	C2241.783447,369.465240 2232.619385,371.616882 2223.870361,374.609436 
	C2216.375977,377.172852 2214.061279,383.741302 2216.070068,391.876404 
	C2217.643799,398.249756 2222.316895,401.953491 2230.036865,401.043610 
	C2244.535645,399.334778 2258.973389,397.014374 2273.370117,394.558746 
	C2293.669434,391.096375 2313.850586,386.897186 2334.204590,383.822510 
	C2341.312256,382.748779 2348.810791,384.575134 2356.078613,384.159027 
	C2362.942627,383.766083 2370.060547,383.091156 2376.475342,380.848450 
	C2383.369873,378.438080 2386.070312,370.455872 2384.074707,363.269714 
	C2382.442383,357.391632 2378.039551,354.717590 2369.670898,355.897308 
	C2359.314697,357.357208 2349.038086,359.452026 2338.783691,361.548889 
	C2325.135254,364.339752 2311.558105,367.631592 2296.957520,364.467712 
	C2301.933838,354.096252 2307.134521,344.089905 2311.610596,333.769257 
	C2324.390869,304.302246 2343.018799,277.307556 2349.271240,245.041519 
	C2349.525391,243.730606 2351.890625,242.028732 2353.398926,241.890350 
	C2363.490967,240.964493 2373.635254,240.608398 2383.727539,239.686310 
	C2393.724121,238.773010 2403.679443,237.411697 2413.652588,236.246933 
	C2411.876465,222.330566 2405.648193,216.024002 2392.883789,216.817307 
	C2369.664795,218.260361 2346.516357,220.845551 2322.466309,223.020874 
M2676.258301,276.359222 
	C2672.610107,275.277069 2668.961914,274.194946 2664.876953,272.983246 
	C2666.108154,271.615967 2666.904297,270.589874 2667.840332,269.713623 
	C2682.167480,256.302368 2699.433594,248.283066 2718.075439,243.189194 
	C2737.792236,237.801559 2757.727051,233.216675 2777.480225,227.956665 
	C2788.881592,224.920654 2800.291992,221.582275 2809.692627,213.946884 
	C2811.236572,212.692978 2812.608154,210.338226 2812.717041,208.416199 
	C2812.878662,205.563919 2810.782715,203.932449 2807.784912,203.232315 
	C2804.573975,202.482391 2801.536133,201.018677 2798.369141,200.039490 
	C2797.226562,199.686218 2795.797119,199.446503 2794.721924,199.812103 
	C2775.377197,206.390244 2755.985596,212.845306 2736.769043,219.783691 
	C2713.037109,228.352463 2689.220703,236.774384 2665.935791,246.450256 
	C2657.585938,249.920013 2649.870117,256.023987 2643.299561,262.403259 
	C2633.907959,271.521393 2636.168701,283.930664 2647.597900,290.404388 
	C2652.016602,292.907227 2656.975098,295.113678 2661.933350,295.895996 
	C2685.262207,299.576660 2708.722168,302.433899 2732.033691,306.212494 
	C2739.455566,307.415497 2747.034668,309.631195 2753.701416,313.030853 
	C2762.892578,317.717529 2764.511475,327.205688 2757.545166,334.765533 
	C2753.035156,339.659851 2747.330078,343.980072 2741.351318,346.902802 
	C2715.538574,359.521606 2688.156250,366.759369 2659.442139,368.576447 
	C2647.625488,369.324188 2640.428711,364.641357 2637.169922,352.914642 
	C2634.969727,344.998016 2634.735596,336.550049 2633.242676,328.409332 
	C2632.940674,326.762726 2631.190918,324.934387 2629.624756,324.120148 
	C2628.534424,323.553314 2626.137207,324.057983 2625.148682,324.974060 
	C2619.268799,330.421753 2616.177979,337.310303 2616.017822,345.337677 
	C2615.548828,368.811401 2634.120117,387.736938 2657.727295,387.716370 
	C2680.537354,387.696472 2702.706787,383.362640 2724.555664,377.176971 
	C2740.948242,372.536133 2756.799072,366.632690 2770.669678,356.389374 
	C2778.168945,350.851288 2784.327881,344.197784 2787.560303,335.248962 
	C2791.901367,323.229828 2789.575439,312.702484 2778.921387,305.736267 
	C2770.705322,300.364136 2761.451172,295.671753 2751.999756,293.273285 
	C2727.196533,286.978943 2702.032959,282.103699 2676.258301,276.359222 
M1038.127563,379.754120 
	C1043.266357,363.630615 1051.343384,348.964996 1060.049194,334.542023 
	C1070.437256,317.332123 1081.649292,300.441589 1090.096191,282.291931 
	C1097.403076,266.592010 1101.526855,249.381393 1106.636963,232.709595 
	C1107.881836,228.648026 1109.858643,226.471741 1113.793335,225.629898 
	C1131.814453,221.774185 1149.765381,217.546097 1167.875610,214.170334 
	C1176.004883,212.655029 1184.448242,212.823792 1193.707520,212.159607 
	C1192.629761,214.812698 1192.176880,215.846481 1191.786499,216.903305 
	C1190.663208,219.944702 1193.012329,223.974976 1196.203613,223.954285 
	C1208.854126,223.872314 1223.373901,218.681854 1229.437500,202.999542 
	C1229.954956,201.661285 1230.055054,199.552200 1229.343262,198.451874 
	C1225.963867,193.227631 1221.653442,189.153519 1214.765747,189.646957 
	C1202.167969,190.549438 1189.291138,190.159882 1177.036621,192.725677 
	C1149.248657,198.543823 1121.701538,205.568878 1094.183228,212.599991 
	C1071.291626,218.448975 1048.486328,224.679474 1024.816406,226.329437 
	C1014.721558,227.033096 1004.538452,226.894150 994.411133,226.599792 
	C981.674927,226.229568 976.080872,229.129791 971.604858,239.452576 
	C969.344055,244.666489 971.177490,252.199402 975.843933,256.869263 
	C980.118408,261.146881 984.813110,261.848785 990.887024,259.550781 
	C1002.661743,255.095917 1014.265198,249.941498 1026.369507,246.665527 
	C1042.865479,242.200989 1059.763550,239.222443 1078.219360,235.232758 
	C1075.796753,245.506165 1074.072388,254.934814 1071.321289,264.053680 
	C1065.196411,284.353943 1053.504395,301.850708 1042.447510,319.656982 
	C1033.066162,334.764984 1023.704163,349.897919 1014.886597,365.335663 
	C1011.960266,370.459106 1010.751831,376.563690 1008.666809,382.478302 
	C1018.586243,384.639648 1027.108643,386.496613 1035.586792,388.343933 
	C1036.521729,385.294891 1037.250366,382.918304 1038.127563,379.754120 
M929.182251,206.779083 
	C919.216003,209.388245 909.228027,211.917496 899.287842,214.622421 
	C875.159424,221.188263 850.794922,226.402466 825.694031,227.119736 
	C818.053284,227.338058 810.388123,226.635925 802.742981,226.791412 
	C794.188232,226.965408 787.486328,229.908127 784.637695,239.130997 
	C782.932800,244.650681 783.971375,251.775589 788.617493,256.633606 
	C792.889160,261.100098 797.896240,262.158630 804.019470,259.419617 
	C819.981812,252.279495 836.230896,246.212463 853.595154,243.239349 
	C865.657349,241.174042 877.562988,238.194077 891.193726,235.267349 
	C888.809998,245.489731 887.162109,254.781143 884.447083,263.749451 
	C878.255676,284.200226 866.543823,301.873840 855.345703,319.792267 
	C846.183594,334.452820 837.008301,349.120087 828.428223,364.121460 
	C825.307800,369.577118 823.891663,376.007538 821.545349,382.409515 
	C831.338684,384.577667 839.864319,386.465210 848.770874,388.437042 
	C854.653381,363.228485 868.316040,342.307739 881.370300,321.069916 
	C891.284180,304.941010 902.239319,289.354706 907.875916,270.947388 
	C911.815674,258.081360 916.032959,245.297821 919.786926,232.378845 
	C920.842468,228.746384 922.532349,226.636734 926.198669,225.849594 
	C944.376892,221.946808 962.474365,217.625702 980.737732,214.180649 
	C988.891296,212.642593 997.367371,212.814331 1006.715637,212.136215 
	C1005.676331,214.695953 1005.235168,215.726532 1004.836914,216.773422 
	C1003.679199,219.816895 1005.927307,223.649506 1009.064392,224.002213 
	C1022.386841,225.500076 1038.285645,215.461029 1042.603394,202.683304 
	C1043.023682,201.439301 1043.100708,199.549271 1042.439087,198.558746 
	C1039.004639,193.416336 1034.843628,189.211517 1027.905518,189.633530 
	C1017.449951,190.269485 1006.779663,189.760284 996.578796,191.713181 
	C974.245789,195.988739 952.150330,201.505524 929.182251,206.779083 
M530.815979,272.179535 
	C531.737976,264.080017 532.733826,255.988113 533.567566,247.879532 
	C535.800354,226.166779 523.531128,212.287384 501.798706,211.589783 
	C491.760651,211.267578 482.287079,213.288635 473.294617,217.598770 
	C447.758820,229.838226 427.890289,248.776077 410.949036,271.011108 
	C399.304504,286.294373 389.081299,302.403564 384.526184,321.450439 
	C376.935272,353.191742 391.686890,377.513458 423.310242,385.167938 
	C442.214630,389.743744 461.446228,389.861908 480.341705,386.401886 
	C501.231323,382.576721 521.796448,376.969849 542.485779,372.067047 
	C547.734497,370.823242 549.659363,368.225189 548.585693,364.379608 
	C546.804871,358.001709 545.033691,356.734283 539.294128,358.239929 
	C535.765320,359.165649 532.368652,360.583984 528.863220,361.612671 
	C522.657104,363.433899 516.512329,365.792206 510.164948,366.735748 
	C496.684387,368.739532 483.115875,370.275177 469.535522,371.448822 
	C455.875000,372.629395 442.248505,372.323273 429.156250,367.308411 
	C408.420654,359.365723 400.492401,345.671692 406.969208,324.469421 
	C418.356659,287.192047 441.858063,259.036438 475.913086,240.186386 
	C482.357971,236.619019 490.372833,235.179398 497.840363,234.347519 
	C507.146393,233.310867 511.075562,237.934921 510.206573,247.227371 
	C509.728027,252.344238 509.120850,257.540070 507.703918,262.449890 
	C506.537476,266.491455 507.537384,269.384583 509.726654,272.581848 
	C512.610901,276.794128 516.546631,278.562622 521.416748,279.262299 
	C527.765564,280.174377 529.432922,279.207794 530.815979,272.179535 
M1683.904297,296.357178 
	C1676.535156,308.604370 1669.547607,321.103149 1661.688232,333.027283 
	C1654.005493,344.683350 1644.986816,355.463196 1637.385010,367.167084 
	C1630.643555,377.546234 1634.905029,386.413818 1647.292603,386.916168 
	C1658.303345,387.362732 1669.606934,386.456726 1680.433716,384.356079 
	C1703.578125,379.865479 1726.564331,377.870728 1749.664062,383.829407 
	C1759.547119,386.378815 1768.263916,385.163422 1776.744873,378.949371 
	C1781.227173,375.665222 1783.950439,372.349030 1783.687134,366.883209 
	C1783.521606,363.446136 1783.078003,360.022461 1782.739014,356.376465 
	C1747.326538,355.720093 1712.244507,363.929993 1676.510254,357.128662 
	C1677.448975,355.167908 1678.104980,353.702576 1678.839355,352.277618 
	C1696.426514,318.151642 1714.145996,284.092896 1731.538818,249.868210 
	C1736.572266,239.963821 1740.970825,229.704773 1745.102905,219.385025 
	C1748.114868,211.862839 1743.587891,202.228180 1736.270630,198.886703 
	C1730.142700,196.088379 1723.816895,199.008301 1719.515503,207.433426 
	C1716.813354,212.726135 1714.661255,218.381607 1712.939941,224.079025 
	C1705.470459,248.802719 1696.160522,272.765350 1683.904297,296.357178 
z"/>
<path fill="#B92F1E" opacity="1.000000" stroke="none" 
	d="
M1643.036133,134.018494 
	C1643.269165,136.393097 1643.467163,138.357315 1643.680908,140.477341 
	C1632.044434,143.712311 1620.442261,146.547241 1609.087646,150.160172 
	C1551.717896,168.414780 1496.289551,191.149185 1444.961670,222.987793 
	C1421.965332,237.252396 1400.257568,253.238144 1382.937500,274.397614 
	C1374.533447,284.664703 1367.856567,295.906830 1364.649414,308.960754 
	C1359.043823,331.775970 1366.603027,347.640411 1388.706055,355.840790 
	C1399.320923,359.778992 1410.802856,362.520905 1422.070190,363.331909 
	C1448.773438,365.253906 1475.339233,363.133667 1501.017090,354.815094 
	C1520.893555,348.376038 1537.770386,337.700958 1548.309814,318.830017 
	C1554.082886,308.493408 1558.096069,292.287079 1557.312622,281.750610 
	C1547.680908,285.027222 1538.193604,288.507416 1528.544556,291.458618 
	C1520.608154,293.885956 1512.575073,296.231781 1504.417358,297.652191 
	C1486.221436,300.820465 1474.652832,288.366516 1478.914795,270.728851 
	C1480.898071,262.520996 1487.978882,256.864471 1498.195557,256.099274 
	C1505.473389,255.554153 1512.858154,255.156769 1520.105957,255.761810 
	C1533.570068,256.885834 1545.541138,251.549667 1557.986206,248.158752 
	C1572.072388,244.320663 1586.134033,240.388275 1600.262207,236.712280 
	C1602.591431,236.106262 1605.221558,236.432510 1607.688965,236.627640 
	C1613.679565,237.101410 1616.664062,241.175339 1615.640747,247.062149 
	C1611.081909,273.286987 1599.021729,296.359222 1585.724854,318.965454 
	C1573.500000,339.749115 1561.385742,360.602783 1549.607300,381.640961 
	C1545.893188,388.274689 1543.693726,395.737946 1540.322876,402.586212 
	C1533.435913,416.578369 1515.794189,419.861633 1504.053345,409.563202 
	C1498.465088,404.661530 1497.374146,400.697083 1499.847900,393.744385 
	C1500.625122,391.559814 1501.588379,389.434265 1502.578857,387.334747 
	C1503.493530,385.396393 1504.558960,383.529236 1506.075806,380.647034 
	C1499.836548,380.954132 1494.168213,381.058258 1488.532471,381.541840 
	C1467.808838,383.320129 1447.124878,385.711731 1426.370850,386.946014 
	C1404.920410,388.221710 1383.767334,386.078857 1363.857666,377.033783 
	C1346.574341,369.181946 1333.724854,357.311005 1330.461548,337.709259 
	C1328.116089,323.620209 1331.478516,310.260712 1337.459961,297.502716 
	C1346.932251,277.298889 1361.157349,260.585571 1376.640015,244.881531 
	C1409.256714,211.798203 1446.915894,185.277756 1486.464966,161.295975 
	C1514.226562,144.461960 1542.611572,128.829163 1573.582275,118.520874 
	C1586.900757,114.087952 1600.490234,110.942482 1614.640991,111.003654 
	C1630.413086,111.071831 1639.308228,118.186455 1643.036133,134.018494 
z"/>
<path fill="#B9301E" opacity="1.000000" stroke="none" 
	d="
M340.677368,131.759674 
	C349.713928,128.242340 358.354858,124.796120 367.053101,121.501152 
	C368.145325,121.087402 369.644684,121.158043 370.776245,121.537910 
	C376.436493,123.438004 382.007782,125.602921 387.667084,127.506035 
	C392.887482,129.261551 394.633301,136.217102 390.566559,139.948090 
	C381.144440,148.592392 369.695618,153.700562 357.658173,157.064484 
	C332.530182,164.086594 307.257599,170.607117 281.963318,177.013550 
	C258.393341,182.983276 234.733719,188.831879 213.647903,201.405228 
	C203.567001,207.416412 194.467865,215.080704 184.980911,222.073380 
	C183.701630,223.016296 182.755753,224.411530 180.791183,226.528839 
	C192.053345,229.495361 202.348526,232.598038 212.820938,234.891357 
	C242.536804,241.398727 272.365662,247.392044 302.066345,253.965927 
	C315.265137,256.887360 327.787079,261.906677 339.301666,269.135803 
	C360.178711,282.242859 365.071716,301.864746 352.770325,323.316437 
	C345.328857,336.293243 333.988770,345.248871 321.389526,352.696869 
	C300.429993,365.087067 277.555420,372.582275 254.072418,378.428589 
	C226.870178,385.200775 199.410751,390.149445 171.246735,390.118774 
	C138.499207,390.083130 112.196167,364.872406 111.354744,332.247559 
	C111.031410,319.710999 115.547752,308.731567 124.820587,300.080933 
	C126.010826,298.970520 128.706696,298.441589 130.249405,298.971039 
	C132.903091,299.881836 136.187820,300.165588 136.259842,304.825531 
	C136.468369,318.317352 137.518143,331.755524 142.892075,344.442017 
	C148.126343,356.798859 157.102615,363.269135 170.784454,362.903046 
	C197.471069,362.188995 223.181061,356.284576 248.551193,348.510132 
	C265.267700,343.387482 281.952423,337.972992 296.800385,328.577667 
	C303.568756,324.294922 310.093964,318.914825 315.092529,312.713104 
	C322.844238,303.095520 320.417572,291.540924 310.293030,284.439026 
	C299.596527,276.935883 287.083130,274.863098 274.516937,273.070953 
	C241.903809,268.419891 209.236542,264.099548 176.724838,258.822052 
	C169.089294,257.582611 161.439087,253.972839 154.747101,249.892899 
	C140.766830,241.369446 138.059982,225.472610 148.783676,213.049393 
	C154.764206,206.121033 162.277176,200.118668 170.055206,195.214752 
	C191.569138,181.650574 215.446472,173.100693 239.391357,165.011322 
	C272.930756,153.680618 306.654480,142.895630 340.677368,131.759674 
z"/>
<path fill="#B9301E" opacity="1.000000" stroke="none" 
	d="
M707.642700,370.639526 
	C691.356995,382.440186 673.764038,388.959717 653.731140,387.742157 
	C638.630432,386.824310 623.362915,387.022797 608.462769,384.778351 
	C579.190002,380.368988 566.137573,360.943359 570.467163,331.586212 
	C574.438477,304.658295 588.285706,283.359192 607.898438,265.686646 
	C622.973145,252.103149 639.276978,239.890488 654.882935,226.886749 
	C662.555176,220.493851 669.874573,213.678131 677.370972,207.073425 
	C696.461975,190.253265 720.531677,191.997513 736.660889,211.755356 
	C749.646484,227.662369 755.595276,246.574478 759.098572,266.506744 
	C765.734314,304.260315 748.841919,332.627960 723.142517,357.493652 
	C718.369812,362.111572 713.013611,366.126434 707.642700,370.639526 
M639.659119,270.144745 
	C633.530212,276.255402 627.160461,282.145752 621.326050,288.525726 
	C611.317566,299.470062 601.749634,310.788910 596.013000,324.756073 
	C592.918640,332.290009 593.216797,339.588257 598.571411,345.852081 
	C601.542725,349.327972 605.251648,352.430145 609.174133,354.795349 
	C639.368652,373.002106 678.820251,366.617706 701.507751,339.630554 
	C722.896851,314.187897 729.524963,283.914825 728.711426,251.566330 
	C728.504395,243.329971 724.212769,238.770599 716.214783,236.826706 
	C703.000732,233.615112 689.834229,233.588379 678.248230,241.538818 
	C665.249329,250.458832 652.880493,260.296997 639.659119,270.144745 
z"/>
<path fill="#B9301E" opacity="1.000000" stroke="none" 
	d="
M1899.049927,218.058167 
	C1903.551514,214.068146 1907.707764,210.217545 1911.986328,206.508331 
	C1930.413452,190.533600 1954.039673,192.255066 1969.940674,210.843964 
	C1981.025635,223.802628 1986.752319,239.342987 1991.019409,255.566360 
	C2001.878540,296.853149 1986.780518,329.517212 1957.299805,357.426270 
	C1944.986206,369.083557 1931.737305,379.450226 1915.158813,384.216949 
	C1908.365601,386.170227 1901.156616,387.417572 1894.103760,387.584564 
	C1875.302612,388.029877 1856.435913,388.315521 1837.914551,384.035583 
	C1817.477539,379.313019 1804.760254,365.516174 1803.913818,347.427155 
	C1803.098755,330.007355 1807.129517,313.758087 1815.534668,298.544525 
	C1826.137817,279.352509 1841.637207,264.680359 1858.637695,251.262024 
	C1872.227783,240.535553 1885.401978,229.282104 1899.049927,218.058167 
M1843.660156,302.186829 
	C1839.003052,310.021698 1833.924927,317.643463 1829.819580,325.757446 
	C1826.409302,332.497589 1827.411499,339.632538 1832.274292,345.440369 
	C1835.311646,349.068024 1839.117188,352.336212 1843.170532,354.784302 
	C1873.353394,373.013367 1912.804321,366.626953 1935.501343,339.636963 
	C1956.894409,314.197632 1963.522949,283.924652 1962.712891,251.576279 
	C1962.506592,243.338791 1958.218872,238.774719 1950.224487,236.829681 
	C1937.011353,233.614914 1924.252930,234.202545 1912.154907,241.379333 
	C1885.607178,257.127869 1863.534180,277.873474 1843.660156,302.186829 
z"/>
<path fill="#B9301E" opacity="1.000000" stroke="none" 
	d="
M2551.664307,361.667297 
	C2538.026611,373.806427 2523.392090,384.132568 2505.349121,386.357117 
	C2491.078857,388.116455 2476.453857,387.403442 2462.000488,387.110504 
	C2454.228027,386.952972 2446.358154,385.956024 2438.750244,384.322754 
	C2411.551270,378.483612 2399.527344,360.421265 2403.277588,332.801056 
	C2407.221924,303.750732 2422.703369,281.456696 2444.006836,262.765289 
	C2458.142578,250.362671 2473.212891,239.030869 2487.696289,227.016541 
	C2495.382080,220.641022 2502.706055,213.829330 2510.197510,207.219391 
	C2529.513916,190.175766 2553.582031,191.928787 2569.825928,211.973724 
	C2582.747070,227.918533 2588.652100,246.832092 2592.131348,266.778503 
	C2598.688965,304.372467 2581.742188,332.505157 2556.343262,357.379028 
	C2554.916748,358.776123 2553.400879,360.081909 2551.664307,361.667297 
M2436.371826,310.909943 
	C2433.772461,315.917847 2430.845215,320.786926 2428.653809,325.967346 
	C2425.622070,333.133911 2426.582520,340.204559 2431.738037,346.047546 
	C2434.766357,349.479340 2438.474609,352.556366 2442.406982,354.906128 
	C2472.937988,373.149872 2512.370117,366.443970 2534.997314,339.058899 
	C2555.921631,313.734589 2562.458496,283.794373 2561.745117,251.813843 
	C2561.557617,243.407181 2557.210449,238.718246 2548.976562,236.751724 
	C2535.741455,233.590820 2522.970947,234.233170 2510.938721,241.522934 
	C2481.482910,259.368683 2456.916992,282.439026 2436.371826,310.909943 
z"/>
<path fill="#B9301E" opacity="1.000000" stroke="none" 
	d="
M2973.624268,206.363113 
	C2988.894287,221.544479 2995.575439,240.516647 3000.063232,260.573151 
	C3007.907959,295.634369 2996.519043,324.738403 2972.538086,350.003601 
	C2958.415527,364.882172 2943.150635,378.232880 2923.035889,384.251160 
	C2916.274902,386.274017 2909.032715,387.419098 2901.977783,387.586945 
	C2883.175537,388.034424 2864.306641,388.310364 2845.790771,384.013885 
	C2825.386963,379.279510 2812.710938,365.413788 2811.904297,347.301331 
	C2811.128662,329.881317 2815.177246,313.645691 2823.601318,298.437653 
	C2833.039062,281.398773 2846.367920,267.821625 2861.265869,255.544495 
	C2880.667480,239.556396 2900.043945,223.530884 2919.136230,207.176926 
	C2936.635742,192.187042 2955.454590,191.598587 2973.624268,206.363113 
M2968.013184,286.450134 
	C2968.967285,275.201141 2970.396240,263.966003 2970.725586,252.698730 
	C2970.989746,243.678085 2966.307617,238.561646 2957.403564,236.575577 
	C2944.322021,233.657761 2931.806152,234.530014 2919.837402,241.523865 
	C2901.125977,252.457993 2884.890137,266.398621 2869.777832,281.715698 
	C2858.074951,293.577057 2846.930176,305.976288 2839.610107,321.199341 
	C2833.113525,334.709198 2835.870850,344.541504 2848.245850,353.033813 
	C2875.450928,371.703156 2914.885498,368.251038 2938.400635,345.047302 
	C2954.593506,329.068878 2963.376709,309.253937 2968.013184,286.450134 
z"/>
<path fill="#BA301F" opacity="1.000000" stroke="none" 
	d="
M2131.437988,367.556549 
	C2133.074707,374.873566 2135.355225,381.785309 2135.819336,388.817017 
	C2136.578613,400.321442 2129.892090,407.577850 2118.455078,409.291443 
	C2114.309570,409.912598 2111.525146,407.690887 2111.267090,403.424866 
	C2109.781494,378.880310 2100.911865,356.805725 2087.949463,336.348816 
	C2084.408203,330.760254 2079.231934,325.775970 2073.807861,321.917267 
	C2066.386475,316.637512 2060.641357,318.332245 2055.618164,325.938965 
	C2053.523682,329.110962 2052.097168,332.715607 2050.169922,336.008209 
	C2046.991821,341.437866 2044.173462,347.193481 2040.255737,352.046539 
	C2034.984863,358.575745 2028.916016,359.084808 2021.616455,354.860107 
	C2016.967163,352.169250 2016.873779,348.102020 2019.952148,343.814911 
	C2026.824219,334.244324 2033.182983,324.298706 2039.502930,314.348480 
	C2040.120483,313.376282 2039.550293,310.728943 2038.608276,309.861023 
	C2035.866943,307.335510 2036.148560,304.872620 2038.136353,302.429596 
	C2041.491455,298.305878 2044.947998,294.244446 2048.620850,290.404633 
	C2054.146240,284.627991 2059.857910,279.027161 2065.557861,273.420258 
	C2073.690186,265.420502 2076.775146,255.906143 2074.125244,244.753479 
	C2073.331787,241.413147 2073.523193,238.493484 2076.101562,236.093491 
	C2084.486328,228.288818 2092.898438,220.513351 2101.364990,212.797455 
	C2101.978516,212.238251 2103.319092,211.773727 2103.968018,212.061935 
	C2113.393555,216.249039 2122.833984,213.966995 2131.766602,211.166794 
	C2150.141602,205.406555 2168.194580,198.625061 2186.432129,192.417755 
	C2198.300537,188.378235 2210.463623,185.524139 2223.102783,186.681747 
	C2237.122070,187.965744 2243.281494,196.587585 2240.645996,210.429428 
	C2238.282959,222.841705 2230.964111,232.149109 2221.828613,240.239136 
	C2203.762695,256.237854 2182.442383,266.808380 2160.400635,275.855042 
	C2138.891113,284.683350 2117.008301,292.602417 2095.288574,300.918427 
	C2093.933594,301.437256 2092.571533,301.937317 2090.714600,302.632812 
	C2107.434082,322.467163 2121.905518,343.253357 2131.437988,367.556549 
M2094.150879,280.850281 
	C2098.995850,279.719788 2103.998291,279.034790 2108.659668,277.385651 
	C2136.777588,267.437958 2163.728271,254.971161 2188.479736,238.227356 
	C2195.295898,233.616241 2201.316406,227.726135 2207.253662,221.961060 
	C2210.287109,219.015564 2213.501465,214.894592 2210.946533,210.447357 
	C2208.406738,206.026443 2203.398926,206.871735 2199.208740,207.857162 
	C2168.136475,215.164780 2138.273926,225.502762 2111.954590,244.178146 
	C2100.833740,252.069153 2091.522705,261.719757 2085.706055,274.304016 
	C2084.855957,276.142731 2084.327148,278.129791 2083.355225,280.882111 
	C2087.303223,280.882111 2090.273438,280.882111 2094.150879,280.850281 
z"/>
<path fill="#B9301E" opacity="1.000000" stroke="none" 
	d="
M2322.902344,222.987518 
	C2346.516357,220.845551 2369.664795,218.260361 2392.883789,216.817307 
	C2405.648193,216.024002 2411.876465,222.330566 2413.652588,236.246933 
	C2403.679443,237.411697 2393.724121,238.773010 2383.727539,239.686310 
	C2373.635254,240.608398 2363.490967,240.964493 2353.398926,241.890350 
	C2351.890625,242.028732 2349.525391,243.730606 2349.271240,245.041519 
	C2343.018799,277.307556 2324.390869,304.302246 2311.610596,333.769257 
	C2307.134521,344.089905 2301.933838,354.096252 2296.957520,364.467712 
	C2311.558105,367.631592 2325.135254,364.339752 2338.783691,361.548889 
	C2349.038086,359.452026 2359.314697,357.357208 2369.670898,355.897308 
	C2378.039551,354.717590 2382.442383,357.391632 2384.074707,363.269714 
	C2386.070312,370.455872 2383.369873,378.438080 2376.475342,380.848450 
	C2370.060547,383.091156 2362.942627,383.766083 2356.078613,384.159027 
	C2348.810791,384.575134 2341.312256,382.748779 2334.204590,383.822510 
	C2313.850586,386.897186 2293.669434,391.096375 2273.370117,394.558746 
	C2258.973389,397.014374 2244.535645,399.334778 2230.036865,401.043610 
	C2222.316895,401.953491 2217.643799,398.249756 2216.070068,391.876404 
	C2214.061279,383.741302 2216.375977,377.172852 2223.870361,374.609436 
	C2232.619385,371.616882 2241.783447,369.465240 2250.939453,368.119049 
	C2265.950195,365.912018 2276.600830,358.543274 2283.775391,345.131470 
	C2299.186035,316.324707 2312.583740,286.721832 2321.286621,255.147415 
	C2323.092285,248.596420 2321.797852,246.894897 2314.893555,247.794266 
	C2309.347412,248.516647 2303.859619,250.061615 2298.496826,251.726669 
	C2290.725830,254.139450 2283.228760,257.558807 2275.352783,259.467834 
	C2269.392090,260.912537 2263.021973,260.667755 2256.011230,261.242310 
	C2256.350098,254.695328 2255.848145,249.386353 2257.158203,244.570343 
	C2257.978271,241.555496 2261.054932,237.912918 2263.934326,236.922943 
	C2274.257812,233.373489 2284.854980,230.522781 2295.490967,228.009811 
	C2304.379395,225.909698 2313.467041,224.651764 2322.902344,222.987518 
z"/>
<path fill="#BA311F" opacity="1.000000" stroke="none" 
	d="
M2676.635742,276.511108 
	C2702.032959,282.103699 2727.196533,286.978943 2751.999756,293.273285 
	C2761.451172,295.671753 2770.705322,300.364136 2778.921387,305.736267 
	C2789.575439,312.702484 2791.901367,323.229828 2787.560303,335.248962 
	C2784.327881,344.197784 2778.168945,350.851288 2770.669678,356.389374 
	C2756.799072,366.632690 2740.948242,372.536133 2724.555664,377.176971 
	C2702.706787,383.362640 2680.537354,387.696472 2657.727295,387.716370 
	C2634.120117,387.736938 2615.548828,368.811401 2616.017822,345.337677 
	C2616.177979,337.310303 2619.268799,330.421753 2625.148682,324.974060 
	C2626.137207,324.057983 2628.534424,323.553314 2629.624756,324.120148 
	C2631.190918,324.934387 2632.940674,326.762726 2633.242676,328.409332 
	C2634.735596,336.550049 2634.969727,344.998016 2637.169922,352.914642 
	C2640.428711,364.641357 2647.625488,369.324188 2659.442139,368.576447 
	C2688.156250,366.759369 2715.538574,359.521606 2741.351318,346.902802 
	C2747.330078,343.980072 2753.035156,339.659851 2757.545166,334.765533 
	C2764.511475,327.205688 2762.892578,317.717529 2753.701416,313.030853 
	C2747.034668,309.631195 2739.455566,307.415497 2732.033691,306.212494 
	C2708.722168,302.433899 2685.262207,299.576660 2661.933350,295.895996 
	C2656.975098,295.113678 2652.016602,292.907227 2647.597900,290.404388 
	C2636.168701,283.930664 2633.907959,271.521393 2643.299561,262.403259 
	C2649.870117,256.023987 2657.585938,249.920013 2665.935791,246.450256 
	C2689.220703,236.774384 2713.037109,228.352463 2736.769043,219.783691 
	C2755.985596,212.845306 2775.377197,206.390244 2794.721924,199.812103 
	C2795.797119,199.446503 2797.226562,199.686218 2798.369141,200.039490 
	C2801.536133,201.018677 2804.573975,202.482391 2807.784912,203.232315 
	C2810.782715,203.932449 2812.878662,205.563919 2812.717041,208.416199 
	C2812.608154,210.338226 2811.236572,212.692978 2809.692627,213.946884 
	C2800.291992,221.582275 2788.881592,224.920654 2777.480225,227.956665 
	C2757.727051,233.216675 2737.792236,237.801559 2718.075439,243.189194 
	C2699.433594,248.283066 2682.167480,256.302368 2667.840332,269.713623 
	C2666.904297,270.589874 2666.108154,271.615967 2664.876953,272.983246 
	C2668.961914,274.194946 2672.610107,275.277069 2676.635742,276.511108 
z"/>
<path fill="#BA301E" opacity="1.000000" stroke="none" 
	d="
M1038.053223,380.147888 
	C1037.250366,382.918304 1036.521729,385.294891 1035.586792,388.343933 
	C1027.108643,386.496613 1018.586243,384.639648 1008.666809,382.478302 
	C1010.751831,376.563690 1011.960266,370.459106 1014.886597,365.335663 
	C1023.704163,349.897919 1033.066162,334.764984 1042.447510,319.656982 
	C1053.504395,301.850708 1065.196411,284.353943 1071.321289,264.053680 
	C1074.072388,254.934814 1075.796753,245.506165 1078.219360,235.232758 
	C1059.763550,239.222443 1042.865479,242.200989 1026.369507,246.665527 
	C1014.265198,249.941498 1002.661743,255.095917 990.887024,259.550781 
	C984.813110,261.848785 980.118408,261.146881 975.843933,256.869263 
	C971.177490,252.199402 969.344055,244.666489 971.604858,239.452576 
	C976.080872,229.129791 981.674927,226.229568 994.411133,226.599792 
	C1004.538452,226.894150 1014.721558,227.033096 1024.816406,226.329437 
	C1048.486328,224.679474 1071.291626,218.448975 1094.183228,212.599991 
	C1121.701538,205.568878 1149.248657,198.543823 1177.036621,192.725677 
	C1189.291138,190.159882 1202.167969,190.549438 1214.765747,189.646957 
	C1221.653442,189.153519 1225.963867,193.227631 1229.343262,198.451874 
	C1230.055054,199.552200 1229.954956,201.661285 1229.437500,202.999542 
	C1223.373901,218.681854 1208.854126,223.872314 1196.203613,223.954285 
	C1193.012329,223.974976 1190.663208,219.944702 1191.786499,216.903305 
	C1192.176880,215.846481 1192.629761,214.812698 1193.707520,212.159607 
	C1184.448242,212.823792 1176.004883,212.655029 1167.875610,214.170334 
	C1149.765381,217.546097 1131.814453,221.774185 1113.793335,225.629898 
	C1109.858643,226.471741 1107.881836,228.648026 1106.636963,232.709595 
	C1101.526855,249.381393 1097.403076,266.592010 1090.096191,282.291931 
	C1081.649292,300.441589 1070.437256,317.332123 1060.049194,334.542023 
	C1051.343384,348.964996 1043.266357,363.630615 1038.053223,380.147888 
z"/>
<path fill="#BA301E" opacity="1.000000" stroke="none" 
	d="
M929.570068,206.647217 
	C952.150330,201.505524 974.245789,195.988739 996.578796,191.713181 
	C1006.779663,189.760284 1017.449951,190.269485 1027.905518,189.633530 
	C1034.843628,189.211517 1039.004639,193.416336 1042.439087,198.558746 
	C1043.100708,199.549271 1043.023682,201.439301 1042.603394,202.683304 
	C1038.285645,215.461029 1022.386841,225.500076 1009.064392,224.002213 
	C1005.927307,223.649506 1003.679199,219.816895 1004.836914,216.773422 
	C1005.235168,215.726532 1005.676331,214.695953 1006.715637,212.136215 
	C997.367371,212.814331 988.891296,212.642593 980.737732,214.180649 
	C962.474365,217.625702 944.376892,221.946808 926.198669,225.849594 
	C922.532349,226.636734 920.842468,228.746384 919.786926,232.378845 
	C916.032959,245.297821 911.815674,258.081360 907.875916,270.947388 
	C902.239319,289.354706 891.284180,304.941010 881.370300,321.069916 
	C868.316040,342.307739 854.653381,363.228485 848.770874,388.437042 
	C839.864319,386.465210 831.338684,384.577667 821.545349,382.409515 
	C823.891663,376.007538 825.307800,369.577118 828.428223,364.121460 
	C837.008301,349.120087 846.183594,334.452820 855.345703,319.792267 
	C866.543823,301.873840 878.255676,284.200226 884.447083,263.749451 
	C887.162109,254.781143 888.809998,245.489731 891.193726,235.267349 
	C877.562988,238.194077 865.657349,241.174042 853.595154,243.239349 
	C836.230896,246.212463 819.981812,252.279495 804.019470,259.419617 
	C797.896240,262.158630 792.889160,261.100098 788.617493,256.633606 
	C783.971375,251.775589 782.932800,244.650681 784.637695,239.130997 
	C787.486328,229.908127 794.188232,226.965408 802.742981,226.791412 
	C810.388123,226.635925 818.053284,227.338058 825.694031,227.119736 
	C850.794922,226.402466 875.159424,221.188263 899.287842,214.622421 
	C909.228027,211.917496 919.216003,209.388245 929.570068,206.647217 
z"/>
<path fill="#BA301F" opacity="1.000000" stroke="none" 
	d="
M530.738892,272.590912 
	C529.432922,279.207794 527.765564,280.174377 521.416748,279.262299 
	C516.546631,278.562622 512.610901,276.794128 509.726654,272.581848 
	C507.537384,269.384583 506.537476,266.491455 507.703918,262.449890 
	C509.120850,257.540070 509.728027,252.344238 510.206573,247.227371 
	C511.075562,237.934921 507.146393,233.310867 497.840363,234.347519 
	C490.372833,235.179398 482.357971,236.619019 475.913086,240.186386 
	C441.858063,259.036438 418.356659,287.192047 406.969208,324.469421 
	C400.492401,345.671692 408.420654,359.365723 429.156250,367.308411 
	C442.248505,372.323273 455.875000,372.629395 469.535522,371.448822 
	C483.115875,370.275177 496.684387,368.739532 510.164948,366.735748 
	C516.512329,365.792206 522.657104,363.433899 528.863220,361.612671 
	C532.368652,360.583984 535.765320,359.165649 539.294128,358.239929 
	C545.033691,356.734283 546.804871,358.001709 548.585693,364.379608 
	C549.659363,368.225189 547.734497,370.823242 542.485779,372.067047 
	C521.796448,376.969849 501.231323,382.576721 480.341705,386.401886 
	C461.446228,389.861908 442.214630,389.743744 423.310242,385.167938 
	C391.686890,377.513458 376.935272,353.191742 384.526184,321.450439 
	C389.081299,302.403564 399.304504,286.294373 410.949036,271.011108 
	C427.890289,248.776077 447.758820,229.838226 473.294617,217.598770 
	C482.287079,213.288635 491.760651,211.267578 501.798706,211.589783 
	C523.531128,212.287384 535.800354,226.166779 533.567566,247.879532 
	C532.733826,255.988113 531.737976,264.080017 530.738892,272.590912 
z"/>
<path fill="#BA301E" opacity="1.000000" stroke="none" 
	d="
M1684.054565,296.017517 
	C1696.160522,272.765350 1705.470459,248.802719 1712.939941,224.079025 
	C1714.661255,218.381607 1716.813354,212.726135 1719.515503,207.433426 
	C1723.816895,199.008301 1730.142700,196.088379 1736.270630,198.886703 
	C1743.587891,202.228180 1748.114868,211.862839 1745.102905,219.385025 
	C1740.970825,229.704773 1736.572266,239.963821 1731.538818,249.868210 
	C1714.145996,284.092896 1696.426514,318.151642 1678.839355,352.277618 
	C1678.104980,353.702576 1677.448975,355.167908 1676.510254,357.128662 
	C1712.244507,363.929993 1747.326538,355.720093 1782.739014,356.376465 
	C1783.078003,360.022461 1783.521606,363.446136 1783.687134,366.883209 
	C1783.950439,372.349030 1781.227173,375.665222 1776.744873,378.949371 
	C1768.263916,385.163422 1759.547119,386.378815 1749.664062,383.829407 
	C1726.564331,377.870728 1703.578125,379.865479 1680.433716,384.356079 
	C1669.606934,386.456726 1658.303345,387.362732 1647.292603,386.916168 
	C1634.905029,386.413818 1630.643555,377.546234 1637.385010,367.167084 
	C1644.986816,355.463196 1654.005493,344.683350 1661.688232,333.027283 
	C1669.547607,321.103149 1676.535156,308.604370 1684.054565,296.017517 
z"/>
<path fill="#FFFEFE" opacity="1.000000" stroke="none" 
	d="
M639.948303,269.940186 
	C652.880493,260.296997 665.249329,250.458832 678.248230,241.538818 
	C689.834229,233.588379 703.000732,233.615112 716.214783,236.826706 
	C724.212769,238.770599 728.504395,243.329971 728.711426,251.566330 
	C729.524963,283.914825 722.896851,314.187897 701.507751,339.630554 
	C678.820251,366.617706 639.368652,373.002106 609.174133,354.795349 
	C605.251648,352.430145 601.542725,349.327972 598.571411,345.852081 
	C593.216797,339.588257 592.918640,332.290009 596.013000,324.756073 
	C601.749634,310.788910 611.317566,299.470062 621.326050,288.525726 
	C627.160461,282.145752 633.530212,276.255402 639.948303,269.940186 
z"/>
<path fill="#FFFEFE" opacity="1.000000" stroke="none" 
	d="
M1843.878174,301.905518 
	C1863.534180,277.873474 1885.607178,257.127869 1912.154907,241.379333 
	C1924.252930,234.202545 1937.011353,233.614914 1950.224487,236.829681 
	C1958.218872,238.774719 1962.506592,243.338791 1962.712891,251.576279 
	C1963.522949,283.924652 1956.894409,314.197632 1935.501343,339.636963 
	C1912.804321,366.626953 1873.353394,373.013367 1843.170532,354.784302 
	C1839.117188,352.336212 1835.311646,349.068024 1832.274292,345.440369 
	C1827.411499,339.632538 1826.409302,332.497589 1829.819580,325.757446 
	C1833.924927,317.643463 1839.003052,310.021698 1843.878174,301.905518 
z"/>
<path fill="#FFFEFE" opacity="1.000000" stroke="none" 
	d="
M2436.587402,310.619202 
	C2456.916992,282.439026 2481.482910,259.368683 2510.938721,241.522934 
	C2522.970947,234.233170 2535.741455,233.590820 2548.976562,236.751724 
	C2557.210449,238.718246 2561.557617,243.407181 2561.745117,251.813843 
	C2562.458496,283.794373 2555.921631,313.734589 2534.997314,339.058899 
	C2512.370117,366.443970 2472.937988,373.149872 2442.406982,354.906128 
	C2438.474609,352.556366 2434.766357,349.479340 2431.738037,346.047546 
	C2426.582520,340.204559 2425.622070,333.133911 2428.653809,325.967346 
	C2430.845215,320.786926 2433.772461,315.917847 2436.587402,310.619202 
z"/>
<path fill="#FFFEFE" opacity="1.000000" stroke="none" 
	d="
M2967.960938,286.871033 
	C2963.376709,309.253937 2954.593506,329.068878 2938.400635,345.047302 
	C2914.885498,368.251038 2875.450928,371.703156 2848.245850,353.033813 
	C2835.870850,344.541504 2833.113525,334.709198 2839.610107,321.199341 
	C2846.930176,305.976288 2858.074951,293.577057 2869.777832,281.715698 
	C2884.890137,266.398621 2901.125977,252.457993 2919.837402,241.523865 
	C2931.806152,234.530014 2944.322021,233.657761 2957.403564,236.575577 
	C2966.307617,238.561646 2970.989746,243.678085 2970.725586,252.698730 
	C2970.396240,263.966003 2968.967285,275.201141 2967.960938,286.871033 
z"/>
<path fill="#FEFDFD" opacity="1.000000" stroke="none" 
	d="
M2093.697266,280.866211 
	C2090.273438,280.882111 2087.303223,280.882111 2083.355225,280.882111 
	C2084.327148,278.129791 2084.855957,276.142731 2085.706055,274.304016 
	C2091.522705,261.719757 2100.833740,252.069153 2111.954590,244.178146 
	C2138.273926,225.502762 2168.136475,215.164780 2199.208740,207.857162 
	C2203.398926,206.871735 2208.406738,206.026443 2210.946533,210.447357 
	C2213.501465,214.894592 2210.287109,219.015564 2207.253662,221.961060 
	C2201.316406,227.726135 2195.295898,233.616241 2188.479736,238.227356 
	C2163.728271,254.971161 2136.777588,267.437958 2108.659668,277.385651 
	C2103.998291,279.034790 2098.995850,279.719788 2093.697266,280.866211 
z"/>
</svg>